<?xml version="1.0" standalone="no"?>
<!DOCTYPE svg PUBLIC "-//W3C//DTD SVG 20010904//EN"
 "http://www.w3.org/TR/2001/REC-SVG-20010904/DTD/svg10.dtd">
<svg version="1.0" xmlns="http://www.w3.org/2000/svg"
 width="1926.000000pt" height="1938.000000pt" viewBox="0 0 1926.000000 1938.000000"
 preserveAspectRatio="xMidYMid meet">
<metadata>
Created by potrace 1.10, written by Peter Selinger 2001-2011
</metadata>
<g transform="translate(0.000000,1938.000000) scale(0.100000,-0.100000)"
fill="#000000" stroke="none">
<path d="M4990 14327 c-19 -8 -47 -19 -62 -25 -96 -39 -173 -200 -149 -312 34
-159 149 -260 297 -260 122 0 223 52 272 141 15 26 32 51 39 53 6 3 25 -8 42
-25 17 -16 35 -29 40 -29 5 0 14 -15 20 -32 12 -41 13 -1072 0 -1104 -4 -13
-26 -32 -48 -43 -21 -11 -49 -37 -62 -58 -30 -49 -36 -53 -89 -53 -61 0 -78
12 -63 42 41 84 35 163 -19 224 l-29 33 45 89 c51 98 56 122 26 122 -15 0 -26
-13 -39 -42 -11 -24 -26 -52 -34 -62 -14 -19 -15 -19 -31 6 -9 14 -21 53 -27
87 -6 34 -19 72 -29 84 -19 22 -19 22 -34 2 -8 -11 -18 -41 -21 -68 -8 -57
-39 -101 -55 -77 -5 8 -10 24 -10 35 0 23 -26 65 -40 65 -21 0 -18 -42 10
-120 35 -100 37 -126 10 -140 -52 -28 -76 -143 -45 -217 24 -57 14 -62 -141
-59 -96 1 -138 6 -143 14 -4 7 -15 50 -25 95 -9 45 -23 111 -31 147 -7 36 -21
103 -30 150 -29 151 -53 216 -95 260 -70 73 -95 78 -382 81 -295 3 -331 -4
-401 -75 -50 -51 -71 -98 -91 -201 -36 -186 -76 -349 -88 -357 -7 -5 -29 -7
-49 -5 -19 3 -50 -1 -67 -9 -27 -11 -32 -18 -32 -47 0 -18 -5 -38 -12 -45 -14
-14 -664 -17 -687 -3 -11 7 -11 17 -1 57 6 27 17 74 25 104 7 30 23 94 36 142
20 73 22 91 11 108 -6 11 -12 22 -12 24 0 3 25 16 56 30 59 27 104 67 104 92
0 7 -10 24 -21 35 -20 20 -28 21 -108 15 -47 -4 -101 -9 -118 -12 -44 -8 -52
15 -25 69 75 153 95 212 77 227 -11 9 -18 5 -35 -22 -11 -18 -20 -40 -20 -49
0 -20 -39 -71 -49 -64 -5 2 -11 46 -13 97 -6 107 -31 203 -61 236 -29 32 -76
29 -110 -6 -20 -21 -32 -51 -47 -118 -11 -49 -20 -101 -20 -116 0 -40 -18 -44
-53 -11 -69 63 -126 72 -165 27 -21 -24 -23 -34 -18 -73 9 -62 76 -195 131
-258 55 -63 58 -83 11 -83 -41 0 -86 -33 -86 -63 0 -12 11 -62 25 -112 56
-204 68 -267 54 -276 -8 -5 -58 -9 -112 -9 -71 0 -109 -5 -133 -16 -38 -18
-64 -58 -64 -98 0 -28 19 -76 31 -76 4 0 24 -15 43 -34 34 -31 36 -37 36 -96
0 -115 63 -170 195 -170 85 0 89 -6 69 -116 -9 -49 -19 -116 -24 -149 -4 -33
-19 -130 -34 -215 -28 -166 -46 -276 -72 -435 -9 -55 -22 -133 -30 -174 -8
-40 -14 -88 -14 -107 0 -21 -8 -42 -20 -54 -19 -19 -33 -20 -325 -20 -297 0
-305 0 -305 -20 0 -12 9 -22 23 -25 12 -3 1149 -4 2527 -3 l2505 3 3 23 3 22
-305 0 c-245 0 -307 3 -318 14 -8 7 -20 51 -27 97 -7 46 -18 120 -26 164 -8
44 -21 130 -30 190 -9 61 -22 148 -30 195 -7 47 -21 132 -30 190 -9 58 -23
141 -30 185 -8 44 -17 112 -21 152 -8 83 -12 79 108 86 75 3 107 20 146 77 17
26 22 47 22 101 0 67 1 69 31 85 54 27 79 62 79 108 0 91 -46 116 -212 116
-68 0 -132 3 -143 6 -11 3 -30 22 -42 44 -16 27 -39 46 -78 65 l-55 27 0 564
c0 506 2 565 16 576 65 52 74 66 74 116 0 92 -71 140 -160 107 -69 -25 -73
-24 -80 15 -14 81 -83 169 -165 212 -51 27 -183 35 -235 15z m208 -59 c51 -26
120 -100 128 -137 3 -14 10 -36 15 -49 41 -101 -59 -260 -185 -296 -65 -19
-77 -19 -130 -4 -75 21 -142 79 -177 153 -25 53 -25 156 0 210 60 131 223 188
349 123z m356 -239 c35 -28 33 -73 -5 -102 -45 -33 -99 -1 -99 57 0 23 7 38
23 49 30 22 50 21 81 -4z m-1209 -779 c68 -34 96 -81 123 -205 12 -55 22 -112
22 -127 0 -15 5 -30 10 -33 6 -3 10 -18 10 -33 0 -15 8 -61 17 -102 9 -41 17
-93 17 -115 l1 -40 -60 0 -60 0 -3 36 c-6 74 8 72 -451 70 -227 -1 -412 2
-415 7 -3 4 2 40 11 78 8 38 21 101 27 139 6 39 14 75 18 80 3 6 9 28 13 50
23 131 63 183 160 209 47 12 107 15 285 13 218 -2 227 -3 275 -27z m760 -286
c9 -34 14 -67 11 -73 -10 -16 -76 -14 -82 3 -5 14 8 73 27 124 12 33 21 21 44
-54z m-2486 1 c7 -7 3 -20 -14 -39 -14 -16 -25 -39 -25 -50 0 -12 -10 -49 -22
-83 -19 -52 -21 -66 -10 -83 16 -27 15 -39 -3 -17 -13 18 -15 16 -34 -22 -12
-22 -21 -43 -21 -46 0 -3 14 -5 32 -5 17 0 28 -3 24 -7 -7 -8 -102 -16 -204
-17 l-64 -1 -20 65 c-11 36 -23 81 -28 100 -5 19 -18 69 -29 112 -24 86 -25
105 -11 110 24 8 420 -8 429 -17z m-37 -217 c-9 -9 -12 -7 -12 12 0 19 3 21
12 12 9 -9 9 -15 0 -24z m1777 -112 c15 -18 5 -43 -22 -50 -30 -8 -819 -8
-896 0 -55 6 -61 9 -61 30 0 12 6 25 13 27 6 3 224 6 483 6 388 1 474 -1 483
-13z m1245 -7 c14 -11 24 -25 21 -30 -4 -5 -48 -9 -100 -9 -52 0 -96 4 -100 9
-12 21 47 51 100 51 38 0 60 -6 79 -21z m392 -107 c42 -27 35 -95 -11 -112
-17 -6 -738 -10 -2016 -10 -1976 0 -1989 0 -2009 20 -27 27 -26 75 2 94 20 14
228 16 2023 16 1100 0 2005 -4 2011 -8z m-3182 -178 c13 -5 16 -23 16 -93 0
-54 -5 -92 -12 -99 -9 -9 -103 -12 -361 -12 l-349 0 -34 34 c-30 30 -34 40
-34 86 0 97 -31 90 390 90 202 0 375 -3 384 -6z m3092 -20 c4 -14 4 -48 2 -76
-4 -42 -11 -57 -37 -80 l-31 -28 -1260 0 -1260 0 -10 26 c-11 27 -7 154 4 173
5 8 373 11 1296 11 l1290 0 6 -26z m-2658 -81 c3 -91 2 -93 -20 -93 -152 -2
-321 0 -326 4 -6 7 -3 167 4 178 3 5 81 7 172 6 l167 -3 3 -92z m-749 -167 c8
-10 5 -40 -15 -122 -14 -60 -29 -129 -34 -154 -7 -40 -28 -135 -74 -340 -8
-36 -22 -99 -31 -140 -9 -41 -22 -102 -30 -135 -7 -33 -28 -123 -45 -200 -19
-83 -39 -145 -48 -152 -20 -17 -53 -16 -76 0 -17 13 -17 18 -2 113 10 54 24
142 32 194 8 52 21 131 29 175 17 94 28 160 50 310 9 61 23 142 30 180 8 39
19 111 26 160 17 127 16 125 103 125 50 0 77 -4 85 -14z m743 -9 c34 -16 99
-17 790 -17 667 1 758 3 793 17 32 13 92 17 297 20 293 5 265 14 287 -92 7
-33 19 -87 26 -120 8 -33 26 -116 40 -185 13 -69 32 -156 40 -195 9 -38 20
-97 26 -129 5 -33 12 -63 15 -67 2 -4 18 -74 34 -156 16 -81 37 -181 45 -221
13 -57 13 -77 4 -88 -17 -21 -3321 -21 -3338 0 -12 14 19 166 118 601 36 155
61 268 102 470 24 115 36 154 52 168 19 17 43 18 326 15 263 -3 311 -6 343
-21z m2378 3 c8 -16 22 -99 46 -265 7 -55 20 -140 28 -190 8 -49 24 -153 35
-230 32 -207 50 -320 67 -410 24 -137 20 -155 -41 -155 -29 0 -65 43 -65 79 0
14 -5 44 -11 66 -11 38 -61 270 -79 365 -5 25 -19 88 -30 140 -12 52 -26 115
-31 140 -4 25 -17 88 -29 140 -11 52 -25 121 -30 152 -6 32 -15 69 -20 84 -12
29 -13 87 -3 98 4 4 41 5 81 4 54 -2 77 -7 82 -18z"/>
<path d="M3403 11980 c-79 -19 -142 -88 -143 -157 0 -18 1 -34 3 -35 1 -1 142
-5 312 -8 l310 -5 7 -101 c8 -132 23 -165 82 -194 43 -20 51 -21 91 -10 81 23
105 68 105 199 0 54 4 91 12 99 9 9 92 12 311 12 186 0 306 4 318 10 31 17 25
70 -15 121 -62 81 -43 79 -746 78 -338 -1 -629 -4 -647 -9z m1296 -59 c15 -10
7 -31 -13 -31 -6 0 -17 -5 -23 -11 -7 -7 -170 -10 -515 -10 -311 1 -517 -3
-538 -9 -56 -16 -276 -25 -284 -11 -9 13 49 68 78 74 42 9 1281 6 1295 -2z"/>
<path d="M4007 11332 c-26 -29 -49 -187 -45 -312 3 -99 5 -111 27 -134 31 -33
51 -33 82 0 23 25 24 31 24 167 0 147 -16 257 -42 283 -19 18 -27 18 -46 -4z
m40 -260 c7 -90 -2 -155 -20 -149 -14 4 -22 148 -12 217 10 63 24 32 32 -68z"/>
<path d="M3440 11191 c-71 -27 -110 -50 -110 -67 0 -26 24 -25 80 3 53 26 61
27 245 30 189 4 210 8 198 40 -8 21 -353 17 -413 -6z"/>
<path d="M4217 11204 c-4 -4 -7 -15 -7 -25 0 -26 35 -30 215 -27 148 2 164 1
208 -20 95 -45 116 -5 22 43 -59 30 -62 30 -245 33 -102 2 -189 0 -193 -4z"/>
<path d="M3247 11049 c-23 -13 -47 -62 -47 -94 0 -37 16 -62 50 -80 56 -29
111 -12 139 42 33 65 -13 143 -86 143 -21 0 -46 -5 -56 -11z m101 -81 c7 -38
-62 -64 -88 -33 -30 36 25 87 65 61 11 -7 21 -20 23 -28z"/>
<path d="M4665 11035 c-24 -23 -29 -43 -25 -95 3 -32 15 -47 56 -66 40 -19 71
-13 113 22 35 29 40 67 16 114 -19 37 -43 50 -95 50 -30 0 -47 -6 -65 -25z
m103 -31 c29 -20 30 -69 2 -84 -36 -19 -73 -8 -85 24 -8 25 -6 31 18 52 33 28
36 29 65 8z"/>
<path d="M3717 14043 c-12 -12 -8 -441 4 -449 23 -14 29 27 29 216 0 222 -6
261 -33 233z"/>
<path d="M2660 13936 c0 -8 15 -24 34 -35 41 -25 115 -104 148 -157 14 -21 33
-74 43 -117 20 -82 42 -99 37 -28 -6 95 -96 244 -191 317 -47 36 -71 43 -71
20z"/>
<path d="M6730 13331 c-65 -21 -92 -43 -116 -94 -23 -51 -24 -59 -24 -299 0
-282 7 -321 67 -375 65 -59 185 -58 246 2 61 60 72 115 72 375 0 238 -6 275
-50 331 -40 50 -135 80 -195 60z m110 -133 c17 -38 20 -67 20 -271 0 -242 -7
-284 -48 -306 -32 -17 -51 -13 -77 15 l-25 27 0 256 c0 238 2 258 20 289 16
26 26 32 55 32 33 0 38 -4 55 -42z"/>
<path d="M8360 13324 c-56 -19 -86 -54 -106 -121 -12 -43 -15 -99 -12 -295 3
-231 4 -245 26 -290 35 -70 72 -93 153 -93 118 0 162 43 175 169 7 64 6 65
-20 77 -18 9 -35 10 -54 3 -24 -9 -28 -15 -33 -72 -3 -35 -11 -68 -17 -74 -20
-20 -74 -13 -94 11 -16 21 -18 45 -18 278 0 207 3 259 15 283 41 80 100 49
111 -57 7 -62 15 -72 61 -73 46 0 62 134 23 197 -36 60 -129 85 -210 57z"/>
<path d="M7135 13308 c-3 -13 -4 -192 -3 -398 l3 -375 55 0 55 0 3 178 2 177
48 0 c70 0 89 8 95 38 9 47 -8 62 -66 62 -29 0 -58 4 -65 8 -9 6 -12 38 -10
123 l3 114 85 5 85 5 0 40 0 40 -142 3 c-141 3 -143 2 -148 -20z"/>
<path d="M7555 13308 c-3 -13 -4 -192 -3 -398 l3 -375 55 0 55 0 3 178 2 177
48 0 c83 0 93 7 90 54 l-3 41 -45 3 c-96 5 -91 -3 -88 130 l3 117 85 5 85 5 0
40 0 40 -142 3 c-141 3 -143 2 -148 -20z"/>
<path d="M7975 13317 c-3 -6 -4 -185 -3 -397 l3 -385 55 0 55 0 3 375 c1 206
0 385 -3 398 -5 19 -12 22 -56 22 -30 0 -51 -5 -54 -13z"/>
<path d="M8735 13318 c-3 -7 -4 -186 -3 -398 l3 -385 145 0 145 0 0 40 0 40
-82 3 c-53 2 -85 7 -92 16 -8 9 -11 55 -9 132 l3 119 60 5 c71 6 85 13 85 45
0 47 -9 55 -65 55 -77 0 -85 12 -85 118 0 135 -2 131 94 134 l81 3 0 40 0 40
-138 3 c-104 2 -139 0 -142 -10z"/>
<path d="M9161 13316 c-8 -9 -10 -122 -9 -397 l3 -384 140 0 140 0 0 40 0 40
-80 5 -80 5 -3 339 c-1 230 -6 344 -13 353 -15 17 -83 17 -98 -1z"/>
<path d="M9555 13317 c-3 -6 -4 -185 -3 -397 l3 -385 49 -3 c32 -2 52 1 57 10
13 20 11 745 -1 769 -8 14 -21 19 -56 19 -26 0 -47 -5 -49 -13z"/>
<path d="M9840 13310 c-7 -12 -9 -148 -8 -397 l3 -378 50 0 50 0 2 217 c0 120
4 218 7 218 3 0 10 0 16 0 5 0 13 -15 19 -32 5 -18 19 -58 31 -88 12 -30 25
-66 29 -80 10 -30 56 -150 78 -203 16 -37 18 -38 62 -35 l46 3 3 384 c1 275
-1 388 -9 397 -6 8 -26 14 -45 14 -53 0 -57 -16 -53 -253 3 -135 0 -211 -6
-214 -16 -5 -61 107 -141 347 -35 104 -47 120 -89 120 -24 0 -37 -6 -45 -20z"/>
<path d="M10405 13308 c-3 -13 -4 -192 -3 -398 l3 -375 55 0 55 0 3 163 c1 94
6 162 12 162 12 0 43 -61 65 -130 10 -30 31 -88 47 -127 l30 -73 53 0 c30 0
56 4 59 8 3 5 -32 99 -76 210 l-82 202 24 58 c25 62 30 74 85 205 20 49 34 95
31 103 -7 18 -89 19 -105 1 -6 -8 -28 -61 -50 -118 -50 -133 -72 -179 -83
-173 -4 3 -8 67 -8 143 0 93 -4 141 -12 149 -7 7 -31 12 -55 12 -36 0 -43 -4
-48 -22z"/>
<path d="M6597 12157 c-16 -11 -17 -32 -15 -192 l3 -180 67 -3 c76 -3 109 11
134 59 20 40 17 74 -10 105 l-23 28 26 48 c25 47 25 48 8 81 -10 18 -31 41
-47 50 -33 20 -119 23 -143 4z m150 -56 c21 -31 21 -35 8 -62 -20 -37 -47 -51
-93 -47 l-37 3 -3 73 -3 73 53 -3 c47 -3 55 -7 75 -37z m-45 -137 c28 -5 40
-14 54 -40 17 -32 17 -34 -2 -74 l-19 -40 -55 2 -55 3 -3 64 c-5 95 -2 98 80
85z"/>
<path d="M6889 12163 c-10 -2 -20 -14 -23 -26 -8 -29 -8 -321 0 -341 9 -23
204 -24 204 -1 0 12 -15 15 -73 15 -98 0 -109 9 -105 85 l3 60 60 3 c110 5
114 24 7 32 l-67 5 -3 61 c-2 42 1 64 11 72 7 6 46 12 87 14 41 2 75 7 75 13
0 10 -145 17 -176 8z"/>
<path d="M7183 12152 c-25 -20 -38 -82 -26 -126 7 -22 21 -33 63 -51 98 -41
131 -92 92 -143 -14 -18 -28 -23 -61 -24 -35 0 -47 5 -71 33 -36 40 -51 31
-26 -16 20 -36 39 -45 102 -45 111 0 139 128 41 189 -19 12 -41 21 -50 21 -21
0 -67 57 -67 84 0 33 36 66 70 66 29 0 70 -29 70 -50 0 -5 7 -10 16 -10 20 0
10 36 -19 68 -26 28 -101 30 -134 4z"/>
<path d="M7417 12164 c-13 -13 5 -24 38 -24 l35 0 2 -172 c3 -146 5 -173 18
-173 13 0 15 26 18 167 l2 168 28 6 c46 10 53 14 47 24 -7 11 -178 14 -188 4z"/>
<path d="M7837 12146 c-35 -33 -39 -54 -35 -196 3 -119 4 -122 31 -146 49 -42
157 -25 170 28 10 38 -10 44 -30 10 -19 -32 -38 -40 -87 -33 -41 5 -56 49 -56
168 0 80 4 104 20 131 34 55 106 41 131 -26 13 -33 33 -15 23 22 -16 65 -115
90 -167 42z"/>
<path d="M8124 12136 l-34 -34 0 -130 c0 -124 1 -130 25 -156 42 -45 118 -48
163 -6 21 20 22 29 22 161 l0 141 -29 29 c-43 43 -101 41 -147 -5z m124 -15
c21 -18 22 -27 22 -149 0 -147 -8 -164 -76 -164 -63 0 -74 25 -74 166 0 109 2
122 22 143 26 28 74 30 106 4z"/>
<path d="M8840 12142 c-35 -35 -45 -90 -37 -215 4 -86 6 -92 36 -119 50 -45
122 -38 159 16 20 29 22 44 22 152 l0 120 -34 37 c-29 31 -40 37 -76 37 -32 0
-48 -6 -70 -28z m128 -26 c20 -22 22 -33 22 -145 0 -145 -8 -161 -80 -161 -25
0 -51 5 -58 12 -8 8 -12 55 -12 147 0 114 3 137 18 152 26 26 82 24 110 -5z"/>
<path d="M9124 12162 c-20 -12 -23 -372 -4 -372 6 0 10 29 10 68 0 115 29 116
104 2 41 -62 76 -90 76 -60 0 6 -4 10 -10 10 -5 0 -10 4 -10 9 0 6 -14 30 -31
55 -31 47 -33 86 -4 86 42 0 70 97 44 154 -19 41 -137 74 -175 48z m135 -48
c62 -52 31 -123 -60 -138 -59 -9 -69 3 -69 84 0 36 3 70 7 73 3 4 25 7 49 7
31 0 51 -7 73 -26z"/>
<path d="M10139 12141 l-29 -29 0 -140 0 -140 31 -26 c34 -29 58 -32 125 -15
l44 11 0 89 0 89 -35 0 c-19 0 -35 -4 -35 -10 0 -5 7 -10 15 -10 41 0 48 -98
10 -136 -21 -21 -31 -24 -62 -18 -64 12 -72 32 -73 170 l0 120 30 22 c38 29
81 28 108 -1 12 -13 22 -29 22 -35 0 -7 5 -12 10 -12 6 0 10 13 10 29 0 23 -8
34 -34 50 -49 31 -101 28 -137 -8z"/>
<path d="M10573 12148 c-38 -42 -45 -65 -32 -107 10 -33 20 -43 68 -67 77 -39
95 -57 95 -99 0 -48 -24 -70 -74 -68 -31 2 -46 9 -69 35 -28 30 -30 31 -31 11
0 -34 54 -73 102 -73 80 0 120 52 103 131 -7 32 -69 79 -104 79 -21 0 -81 65
-81 88 0 23 53 61 87 62 25 0 38 -7 55 -30 25 -35 38 -38 38 -10 0 60 -114 95
-157 48z"/>
<path d="M10832 12158 c-8 -8 -12 -65 -12 -190 0 -149 2 -178 15 -178 11 0 15
16 17 68 l3 67 62 5 c87 7 113 32 113 112 0 72 -11 95 -55 114 -42 17 -127 18
-143 2z m145 -40 c18 -17 23 -32 23 -73 0 -70 -19 -87 -91 -83 l-54 3 -3 65
c-5 101 0 110 55 110 34 0 53 -6 70 -22z"/>
<path d="M11389 12141 l-29 -29 0 -137 0 -137 29 -29 c49 -48 140 -37 171 22
20 36 -1 42 -29 9 -33 -40 -91 -45 -125 -11 -19 20 -21 32 -21 145 0 120 1
124 25 145 46 38 117 18 134 -37 4 -12 12 -20 17 -17 18 12 9 37 -25 71 -46
46 -104 48 -147 5z"/>
<path d="M11673 12162 c-16 -10 -22 -357 -6 -373 13 -13 193 -7 193 6 0 6 -37
12 -82 15 l-83 5 0 70 0 70 55 3 c30 1 62 5 70 8 29 10 -12 24 -73 24 l-58 0
3 73 3 72 83 3 c60 2 82 6 79 15 -4 14 -165 22 -184 9z"/>
<path d="M11964 12134 c-19 -19 -34 -45 -34 -57 0 -48 70 -117 119 -117 28 0
91 -60 91 -86 -1 -11 -10 -30 -21 -43 -38 -46 -159 -26 -159 26 0 7 -7 13 -15
13 -26 0 -16 -37 17 -65 29 -24 38 -27 90 -23 65 5 103 31 113 79 12 55 -59
129 -123 129 -33 0 -82 48 -82 79 0 70 98 96 157 41 18 -17 34 -30 37 -30 15
0 3 31 -23 59 -25 27 -36 31 -81 31 -47 0 -56 -4 -86 -36z"/>
<path d="M8370 12145 c0 -12 4 -25 9 -30 5 -6 11 -28 14 -50 2 -22 9 -53 15
-70 12 -34 32 -113 41 -164 3 -19 11 -36 18 -38 13 -5 43 84 43 127 0 14 4 30
10 36 5 5 13 26 17 47 9 42 26 53 31 22 2 -11 10 -33 17 -50 7 -16 17 -52 23
-80 6 -27 16 -63 22 -80 14 -38 21 -27 45 80 10 44 24 94 31 112 8 17 14 41
14 53 0 12 5 30 11 41 5 11 9 30 7 42 -3 20 -5 19 -20 -9 -10 -18 -22 -56 -27
-85 -12 -65 -34 -146 -43 -154 -8 -9 -48 81 -48 109 0 31 -36 140 -47 143 -10
4 -43 -101 -43 -136 0 -10 -9 -39 -21 -65 -20 -47 -39 -53 -39 -13 0 12 -7 35
-15 51 -8 15 -15 38 -15 50 0 32 -18 89 -35 111 -14 20 -14 20 -15 0z"/>
<path d="M9533 12098 c-28 -35 -56 -73 -62 -86 -8 -16 -20 -22 -34 -20 -20 3
-23 11 -27 78 -5 58 -7 36 -10 -98 -3 -94 -2 -172 3 -172 4 0 7 34 7 75 0 72
1 75 23 75 17 0 38 -20 82 -80 36 -49 66 -80 77 -80 17 0 17 1 2 25 -9 14 -20
25 -25 25 -5 0 -9 6 -9 13 0 8 -11 24 -24 36 -13 12 -32 37 -42 56 l-18 33 29
39 c16 21 31 40 34 43 11 10 61 86 61 93 0 19 -21 1 -67 -55z"/>
<path d="M9686 12144 c-3 -9 -6 -92 -6 -185 0 -144 2 -169 15 -169 13 0 15 27
15 179 0 163 -7 218 -24 175z"/>
<path d="M9807 12143 c-4 -3 -7 -84 -7 -180 0 -142 3 -173 14 -173 11 0 15 23
18 109 1 60 6 112 9 115 13 14 39 -8 62 -52 61 -117 87 -157 99 -157 18 0 19
336 1 342 -10 4 -13 -18 -13 -89 0 -96 -6 -138 -20 -138 -10 0 -65 86 -96 150
-24 49 -56 84 -67 73z"/>
<path d="M11177 12130 c-8 -14 -19 -43 -23 -64 -4 -22 -13 -51 -20 -65 -8 -14
-14 -36 -14 -47 0 -12 -7 -35 -15 -50 -8 -16 -15 -40 -15 -54 0 -15 -5 -31
-12 -38 -6 -6 -9 -14 -5 -18 10 -10 29 7 43 42 13 32 17 34 62 34 38 0 53 -5
70 -23 12 -13 22 -31 22 -40 0 -9 7 -17 15 -17 19 0 19 -2 -6 82 -21 70 -22
70 -38 49 -14 -18 -25 -22 -57 -19 l-39 3 3 45 c4 47 36 104 56 97 6 -2 13
-21 16 -43 3 -21 8 -34 11 -29 6 10 -15 119 -30 160 -7 18 -8 18 -24 -5z"/>
</g>
</svg>
