<?xml version="1.0" standalone="no"?>
<!DOCTYPE svg PUBLIC "-//W3C//DTD SVG 20010904//EN"
 "http://www.w3.org/TR/2001/REC-SVG-20010904/DTD/svg10.dtd">
<svg version="1.0" xmlns="http://www.w3.org/2000/svg"
 width="642.000000pt" height="646.000000pt" viewBox="0 0 642.000000 646.000000"
 preserveAspectRatio="xMidYMid meet">
<metadata>
Created by potrace 1.10, written by Peter Selinger 2001-2011
</metadata>
<g transform="translate(0.000000,646.000000) scale(0.050000,-0.050000)"
fill="#000000" stroke="none">
<path d="M40 12880 c-40 -40 -40 -67 -40 -4530 l0 -4490 4500 0 c3006 0 4500
7 4500 20 0 14 -1484 19 -4480 15 l-4480 -5 5 4490 5 4490 4475 5 c2960 3
4475 12 4475 25 0 45 -8915 25 -8960 -20z"/>
<path d="M3308 9560 c-64 -25 -128 -118 -128 -184 0 -205 242 -304 371 -151
94 111 109 61 109 -357 0 -366 0 -366 -51 -417 -70 -70 -116 -68 -100 4 7 34
1 71 -16 95 -26 34 -25 48 9 115 32 61 34 75 10 75 -16 0 -35 -19 -43 -43 -16
-51 -48 -14 -49 58 0 27 -12 45 -30 45 -16 0 -30 -17 -30 -39 0 -21 -9 -44
-20 -51 -11 -7 -20 2 -20 19 0 17 -9 31 -20 31 -26 0 -26 -43 0 -110 16 -41
13 -60 -12 -85 -22 -22 -29 -53 -21 -100 l11 -67 -94 6 -93 6 -24 110 c-12 61
-29 143 -36 184 -27 161 -86 196 -324 196 -270 0 -305 -27 -347 -265 -26 -143
-32 -155 -76 -155 -31 0 -51 -14 -58 -40 -11 -42 -466 -65 -466 -24 0 9 14 64
31 122 17 58 28 115 23 128 -4 13 19 35 51 49 101 43 65 96 -60 89 l-103 -5
49 85 c56 99 59 116 23 116 -15 0 -36 -25 -48 -55 -21 -52 -22 -50 -24 38 -4
198 -131 230 -156 39 -11 -79 -13 -81 -47 -51 -106 96 -151 -30 -61 -173 55
-90 57 -98 21 -98 -47 0 -50 -47 -11 -195 l28 -105 -84 0 c-116 0 -194 -112
-102 -147 17 -7 30 -35 30 -62 0 -69 67 -131 140 -131 53 0 59 -6 51 -45 -12
-57 -108 -649 -115 -715 -6 -49 -9 -50 -224 -60 -150 -7 -221 -18 -227 -35 -7
-20 343 -25 1703 -25 1508 0 1712 4 1712 30 0 25 -37 30 -217 30 l-218 0 -43
285 c-24 157 -52 328 -63 381 -28 141 -25 154 32 154 84 0 129 35 129 100 0
38 14 66 40 80 101 54 33 160 -102 160 -75 0 -106 11 -154 56 l-60 56 6 363
c5 302 11 369 38 396 68 68 -8 174 -96 134 -43 -20 -49 -17 -59 36 -21 103
-171 166 -285 119z m199 -81 c115 -91 44 -268 -107 -268 -64 0 -93 11 -122 47
-123 151 75 342 229 221z m-685 -690 c68 -11 127 -102 128 -194 0 -8 8 -13 18
-10 18 5 67 -108 70 -160 3 -42 -73 -28 -84 15 -10 38 -27 40 -289 40 l-278 0
9 62 c6 38 15 53 24 38 11 -17 19 -18 29 -2 7 12 8 30 2 41 -6 10 -4 23 6 29
10 6 23 38 30 70 6 34 27 62 47 67 62 14 213 16 288 4z m-1142 -49 l50 -39
-90 2 c-49 1 -70 6 -45 11 49 10 60 37 20 53 -14 5 -16 10 -5 11 11 1 43 -16
70 -38z m60 -85 c0 -3 -17 -50 -38 -105 -64 -171 -202 -196 -202 -37 0 24 -9
67 -20 96 l-19 51 139 0 c77 0 140 -2 140 -5z m1180 -235 c0 -13 -124 -20
-331 -20 -216 0 -327 7 -319 20 7 12 140 20 331 20 199 0 319 -8 319 -20z
m1090 -100 c0 -26 -163 -31 -1330 -35 -1387 -6 -1387 -6 -1367 44 17 47 2697
37 2697 -9z m-2130 -150 l0 -70 -211 0 c-234 0 -289 17 -289 91 l0 49 250 0
250 0 0 -70z m2060 21 c0 -86 -34 -90 -898 -91 l-822 0 0 70 0 70 860 0 860 0
0 -49z m-1780 -33 c0 -61 0 -61 -85 -47 -47 8 -96 15 -110 15 -14 1 -25 22
-25 47 0 44 8 47 110 47 110 0 110 0 110 -62z m-530 -293 c-26 -107 -66 -289
-90 -405 -24 -115 -51 -218 -59 -227 -43 -44 -37 58 22 426 l65 401 54 0 53 0
-45 -195z m1980 115 c6 -38 44 -217 83 -397 39 -179 66 -331 61 -336 -11 -10
-2194 -14 -2204 -3 -3 3 24 137 60 296 36 160 76 340 88 400 l23 110 938 0
938 0 13 -70z m201 -330 c35 -220 59 -407 54 -416 -12 -23 -65 25 -65 60 0 29
-132 664 -153 733 -9 30 -1 35 45 30 l55 -7 64 -400z"/>
<path d="M2201 7947 c-64 -82 -55 -87 178 -87 l219 0 6 -95 c11 -179 196 -162
196 18 l0 77 220 0 c205 0 220 3 220 39 0 90 -58 101 -543 101 l-454 0 -42
-53z m759 -13 c-196 -21 -264 -23 -470 -13 -66 3 -132 2 -147 -3 -16 -4 -32 3
-37 17 -7 20 84 24 417 22 409 -2 419 -3 237 -23z"/>
<path d="M2650 7515 c-25 -130 -4 -265 40 -265 42 0 68 177 41 284 -17 68 -67
56 -81 -19z"/>
<path d="M2396 7482 c-74 -7 -145 -23 -159 -37 -36 -36 -10 -49 52 -26 29 12
108 21 174 21 84 0 118 7 112 24 -10 31 -20 32 -179 18z"/>
<path d="M2800 7460 c0 -11 53 -20 119 -20 66 0 142 -10 170 -23 60 -28 87
-11 51 33 -29 35 -340 45 -340 10z"/>
<path d="M2141 7343 c-25 -48 17 -110 68 -100 48 9 81 63 65 104 -17 45 -108
42 -133 -4z"/>
<path d="M3093 7351 c-17 -44 4 -87 50 -102 51 -16 101 26 93 79 -8 53 -124
72 -143 23z"/>
<path d="M2468 9373 c-20 -53 1 -320 27 -328 19 -6 25 37 25 173 0 167 -22
233 -52 155z"/>
<path d="M1760 9317 c0 -13 31 -53 69 -90 41 -40 75 -96 82 -137 8 -40 25 -70
41 -70 65 0 2 171 -96 260 -69 64 -96 74 -96 37z"/>
<path d="M4434 8864 c-54 -59 -49 -429 6 -484 151 -151 311 228 194 460 -33
66 -150 80 -200 24z m122 -48 c28 -28 33 -331 6 -374 -48 -75 -82 -5 -82 166
0 219 17 267 76 208z"/>
<path d="M4760 8620 c0 -267 2 -280 40 -280 36 0 40 13 40 130 0 125 2 130 50
130 37 0 50 11 50 40 0 29 -13 40 -50 40 -44 0 -50 9 -50 70 0 64 5 70 60 70
47 0 60 9 60 40 0 35 -13 40 -100 40 l-100 0 0 -280z"/>
<path d="M5040 8640 c0 -143 0 -267 -1 -275 0 -8 18 -18 40 -21 38 -6 41 4 41
125 0 126 2 131 50 131 37 0 50 11 50 40 0 29 -13 40 -50 40 -44 0 -50 9 -50
70 0 64 5 70 60 70 47 0 60 9 60 40 0 35 -13 40 -100 40 l-100 0 0 -260z"/>
<path d="M5317 8650 c-2 -137 -4 -261 -5 -275 -1 -14 18 -28 43 -31 45 -7 45
-6 45 275 0 268 -2 281 -40 281 -38 0 -40 -14 -43 -250z"/>
<path d="M5531 8856 c-50 -73 -44 -423 9 -476 79 -79 200 -18 200 101 0 82
-67 75 -76 -7 -5 -40 -17 -55 -40 -50 -42 8 -61 341 -23 388 31 37 59 17 59
-43 0 -36 11 -49 40 -49 50 0 56 101 9 149 -47 46 -141 39 -178 -13z"/>
<path d="M5820 8630 l0 -270 70 -3 c39 -2 86 -4 105 -5 19 -1 37 14 41 33 6
28 -7 35 -65 35 -71 0 -71 0 -71 90 0 83 4 90 50 90 37 0 50 11 50 40 0 29
-13 40 -50 40 -44 0 -50 9 -50 70 0 64 5 70 58 70 54 0 94 41 67 68 -6 7 -55
12 -108 12 l-97 0 0 -270z"/>
<path d="M6100 8630 l0 -270 55 0 c30 0 75 -6 100 -13 36 -9 45 -3 45 29 0 30
-15 43 -54 48 l-53 6 5 235 5 235 -52 0 -51 0 0 -270z"/>
<path d="M6364 8625 c6 -260 8 -275 46 -275 38 0 40 15 46 275 l5 275 -51 0
-51 0 5 -275z"/>
<path d="M6560 8620 c0 -273 1 -280 43 -280 41 0 42 6 32 170 -13 201 1 203
66 6 88 -268 123 -238 127 110 4 271 4 274 -40 274 -43 0 -44 -5 -33 -163 14
-199 -10 -196 -75 12 -81 261 -120 220 -120 -129z"/>
<path d="M6940 8620 c0 -264 2 -280 39 -280 34 0 40 16 45 135 l6 135 41 -130
c37 -115 48 -131 98 -137 30 -3 52 2 48 12 -4 9 -33 77 -65 151 l-58 133 45
106 c24 58 49 116 55 130 7 16 -7 25 -38 25 -41 0 -54 -17 -87 -115 l-39 -115
-6 115 c-5 99 -12 115 -45 115 -37 0 -39 -16 -39 -280z"/>
<path d="M5235 8118 c-54 -31 -50 -229 5 -258 48 -26 120 5 120 51 0 38 -20
37 -50 -4 -37 -52 -70 -13 -70 83 0 98 22 125 67 80 34 -34 53 -38 53 -11 0
56 -72 90 -125 59z"/>
<path d="M5427 8110 c-48 -35 -53 -221 -7 -250 77 -49 140 9 140 126 -1 124
-59 179 -133 124z m93 -123 c0 -93 -46 -141 -82 -85 -25 40 -22 146 4 172 44
44 78 5 78 -87z"/>
<path d="M6775 8118 c-99 -57 -27 -293 82 -265 61 16 64 147 3 147 -22 0 -40
-9 -40 -20 0 -11 10 -20 21 -20 12 0 19 -16 15 -35 -14 -75 -66 -37 -72 53 -8
102 17 139 62 93 39 -39 54 -39 54 -2 0 52 -72 80 -125 49z"/>
<path d="M7055 8118 c-48 -27 -45 -112 3 -127 59 -19 93 -68 66 -95 -17 -17
-33 -14 -64 14 -39 35 -40 35 -40 -6 0 -51 63 -74 119 -44 60 32 51 96 -19
136 -60 34 -76 71 -42 93 11 6 32 -2 49 -19 34 -34 53 -38 53 -11 0 56 -72 90
-125 59z"/>
<path d="M7615 8125 c-44 -10 -64 -85 -48 -179 17 -104 80 -137 142 -74 42 41
18 80 -26 42 -50 -44 -83 -19 -83 64 0 97 34 133 84 89 37 -34 70 -26 47 12
-20 32 -77 55 -116 46z"/>
<path d="M7995 8118 c-59 -34 -44 -117 25 -141 60 -21 79 -63 39 -88 -12 -7
-38 2 -58 20 -46 42 -74 7 -30 -37 37 -37 58 -39 110 -11 63 33 51 117 -21
142 -61 21 -79 63 -37 89 13 8 34 -1 47 -19 30 -41 50 -42 50 -4 0 52 -72 80
-125 49z"/>
<path d="M4380 7990 l0 -132 75 6 75 6 0 120 0 120 -75 6 -75 6 0 -132z m120
58 c0 -15 -18 -28 -40 -28 -38 0 -54 39 -28 65 19 20 68 -7 68 -37z m0 -108
c0 -27 -13 -40 -40 -40 -27 0 -40 13 -40 40 0 27 13 40 40 40 27 0 40 -13 40
-40z"/>
<path d="M4580 7990 l0 -130 81 0 c49 0 76 8 69 20 -7 11 -34 20 -61 20 -35 0
-49 11 -49 38 0 28 10 36 38 28 21 -5 44 0 51 12 8 14 -6 22 -38 22 -40 0 -51
10 -51 47 0 39 8 46 48 38 26 -5 53 1 61 13 9 15 -14 22 -68 22 l-81 0 0 -130z"/>
<path d="M4770 8079 c-15 -46 15 -92 72 -110 42 -13 51 -59 15 -81 -13 -8 -34
1 -47 19 -30 41 -50 42 -50 4 0 -46 72 -77 120 -51 58 31 49 83 -25 144 -54
44 -60 58 -39 80 22 21 32 19 55 -13 32 -43 56 -33 37 16 -19 49 -122 43 -138
-8z"/>
<path d="M4965 8092 c25 -19 35 -55 35 -129 0 -57 9 -103 20 -103 11 0 20 46
20 103 0 74 10 110 35 129 31 23 24 27 -55 27 -79 0 -86 -4 -55 -27z"/>
<path d="M5581 8095 c2 -59 55 -224 73 -230 11 -3 28 32 36 79 l16 86 20 -86
c25 -108 53 -99 86 27 32 120 34 149 10 149 -10 0 -25 -37 -32 -81 -16 -92
-29 -91 -48 3 -17 84 -62 101 -62 25 -1 -101 -34 -121 -50 -30 -12 74 -51 120
-49 58z"/>
<path d="M5885 8097 c-62 -62 -13 -257 64 -257 90 0 100 265 11 276 -28 3 -61
-5 -75 -19z m115 -107 c0 -68 -43 -123 -79 -101 -30 19 -27 186 4 197 42 15
75 -27 75 -96z"/>
<path d="M6060 7991 c0 -74 9 -131 20 -131 11 0 20 23 20 50 0 28 8 50 17 50
9 0 27 -22 39 -50 13 -27 32 -50 44 -50 27 0 25 27 -4 56 -18 18 -17 34 2 71
43 79 22 122 -63 129 l-75 6 0 -131z m88 97 c47 -18 41 -88 -8 -88 -29 0 -40
13 -40 50 0 54 2 56 48 38z"/>
<path d="M6260 7990 c0 -73 9 -130 20 -130 11 0 20 25 20 55 l0 55 48 -60 c27
-33 55 -53 64 -45 8 8 -6 38 -32 65 l-47 50 45 62 c60 80 33 106 -30 28 l-48
-60 0 55 c0 30 -9 55 -20 55 -11 0 -20 -57 -20 -130z"/>
<path d="M6460 8022 c0 -54 -5 -113 -12 -130 -8 -20 -1 -32 17 -32 24 0 30 28
29 130 -1 72 -9 130 -18 130 -9 0 -16 -44 -16 -98z"/>
<path d="M6540 7990 c0 -73 9 -130 20 -130 11 0 20 34 21 75 l1 75 39 -75 c57
-108 79 -93 79 55 0 73 -9 130 -20 130 -11 0 -20 -38 -20 -85 l0 -85 -51 85
c-66 110 -69 109 -69 -45z"/>
<path d="M7210 7990 c0 -91 8 -130 25 -130 14 0 25 23 25 50 0 36 11 50 39 50
49 0 83 59 68 117 -9 34 -27 43 -84 43 l-73 0 0 -130z m130 54 c-1 -35 -39
-69 -66 -58 -19 7 -26 28 -19 62 9 48 86 45 85 -4z"/>
<path d="M7414 7998 c-35 -120 -30 -182 8 -113 24 43 78 46 78 5 0 -16 13 -30
30 -30 22 0 25 11 11 48 -10 26 -28 84 -40 130 -30 110 -45 104 -87 -40z"/>
<path d="M7760 7990 l0 -130 80 0 c44 0 80 9 80 20 0 11 -27 20 -60 20 -40 0
-60 10 -60 30 0 17 17 30 39 30 21 0 44 9 51 20 7 11 -10 20 -39 20 -38 0 -51
10 -51 40 0 31 13 40 60 40 33 0 60 9 60 20 0 11 -36 20 -80 20 l-80 0 0 -130z"/>
</g>
</svg>
